<svg xmlns="http://www.w3.org/2000/svg" viewBox="0 0 32 32">
    <path d="M16 0c-8.838 0-16 7.162-16 16s7.162 16 16 16 16-7.163 16-16-7.163-16-16-16zM16 29c-7.169 0-13-5.832-13-13s5.831-13 13-13 13 5.832 13 13-5.831 13-13 13zM15.944 11c0 0 0 0 0 0 1.316 0 2.557 0.52 3.489 1.461 0.586 0.584 1.533 0.594 2.123 0.010 0.588-0.584 0.592-1.533 0.010-2.123-1.5-1.514-3.497-2.348-5.622-2.348 0 0 0.002 0 0 0-2.123 0-4.122 0.834-5.622 2.348-3.090 3.117-3.090 8.188 0 11.306 1.5 1.514 3.499 2.348 5.622 2.348 0.002 0 0 0 0 0 2.125 0 4.122-0.834 5.622-2.348 0.582-0.59 0.578-1.539-0.010-2.123-0.59-0.582-1.537-0.576-2.123 0.010-0.932 0.941-2.173 1.461-3.489 1.461 0 0 0.002 0 0 0-1.318 0-2.559-0.52-3.493-1.461-1.934-1.951-1.934-5.127 0-7.081 0.937-0.941 2.174-1.46 3.493-1.46z"></path>
</svg>