<svg aria-hidden="true" style="position: absolute; width: 0; height: 0; overflow: hidden;" version="1.1"
    xmlns="http://www.w3.org/2000/svg"
    xmlns:xlink="http://www.w3.org/1999/xlink">
    <defs>
        <symbol id="user" viewBox="0 0 28 32">
            <path d="M14 16q3.375-0.063 5.688-2.313v0q2.25-2.313 2.313-5.688-0.063-3.375-2.313-5.688-2.313-2.25-5.688-2.313-3.375 0.063-5.688 2.313-2.25 2.313-2.313 5.688 0.063 3.375 2.313 5.688 2.313 2.25 5.688 2.313v0zM17.188 19h-6.375q-4.563 0.125-7.625 3.188t-3.188 7.625q0 0.938 0.625 1.563t1.563 0.625h23.625q0.938 0 1.563-0.625t0.625-1.563q-0.125-4.563-3.188-7.625t-7.625-3.188v0z"></path>
        </symbol>
        <symbol id="lock" viewBox="0 0 32 32">
            <path d="M20.125 10.688v-2.688q0-1.688-1.219-2.906t-2.906-1.219-2.906 1.219-1.219 2.906v2.688h8.25zM16 22.688q1.063 0 1.875-0.813t0.813-1.875-0.813-1.875-1.875-0.813-1.875 0.813-0.813 1.875 0.813 1.875 1.875 0.813zM24 10.688q1.063 0 1.875 0.781t0.813 1.844v13.375q0 1.063-0.813 1.844t-1.875 0.781h-16q-1.063 0-1.875-0.781t-0.813-1.844v-13.375q0-1.063 0.813-1.844t1.875-0.781h1.313v-2.688q0-2.75 1.969-4.719t4.719-1.969 4.719 1.969 1.969 4.719v2.688h1.313z"></path>
        </symbol>
        <symbol id="info" viewBox="0 0 32 32">
            <path d="M16 26.688q4.375 0 7.531-3.156t3.156-7.531-3.156-7.531-7.531-3.156-7.531 3.156-3.156 7.531 3.156 7.531 7.531 3.156zM16 2.688q5.5 0 9.406 3.906t3.906 9.406-3.906 9.406-9.406 3.906-9.406-3.906-3.906-9.406 3.906-9.406 9.406-3.906zM14.688 9.313h2.625v8h-2.625v-8zM14.688 20h2.625v2.688h-2.625v-2.688z"></path>
        </symbol>
        <symbol id="check" viewBox="0 0 32 32">
            <path d="M12 21.563l14.125-14.125 1.875 1.875-16 16-7.438-7.438 1.875-1.875z"></path>
        </symbol>
        <symbol id="copyright" viewBox="0 0 32 32">
            <path d="M16 0c-8.838 0-16 7.162-16 16s7.162 16 16 16 16-7.163 16-16-7.163-16-16-16zM16 29c-7.169 0-13-5.832-13-13s5.831-13 13-13 13 5.832 13 13-5.831 13-13 13zM15.944 11c0 0 0 0 0 0 1.316 0 2.557 0.52 3.489 1.461 0.586 0.584 1.533 0.594 2.123 0.010 0.588-0.584 0.592-1.533 0.010-2.123-1.5-1.514-3.497-2.348-5.622-2.348 0 0 0.002 0 0 0-2.123 0-4.122 0.834-5.622 2.348-3.090 3.117-3.090 8.188 0 11.306 1.5 1.514 3.499 2.348 5.622 2.348 0.002 0 0 0 0 0 2.125 0 4.122-0.834 5.622-2.348 0.582-0.59 0.578-1.539-0.010-2.123-0.59-0.582-1.537-0.576-2.123 0.010-0.932 0.941-2.173 1.461-3.489 1.461 0 0 0.002 0 0 0-1.318 0-2.559-0.52-3.493-1.461-1.934-1.951-1.934-5.127 0-7.081 0.937-0.941 2.174-1.46 3.493-1.46z"></path>
        </symbol>
        <symbol id="view_list" viewBox="0 0 32 32">
            <path d="M4 18.688h5.313v-5.375h-5.313v5.375zM4 25.313h5.313v-5.313h-5.313v5.313zM4 12h5.313v-5.313h-5.313v5.313zM10.688 18.688h17.313v-5.375h-17.313v5.375zM10.688 25.313h17.313v-5.313h-17.313v5.313zM10.688 6.688v5.313h17.313v-5.313h-17.313z"></path>
        </symbol>
        <symbol id="settings" viewBox="0 0 32 32">
            <path d="M16 20.688q1.938 0 3.313-1.375t1.375-3.313-1.375-3.313-3.313-1.375-3.313 1.375-1.375 3.313 1.375 3.313 3.313 1.375zM25.938 17.313l2.813 2.188q0.438 0.313 0.125 0.875l-2.688 4.625q-0.25 0.438-0.813 0.25l-3.313-1.313q-1.313 0.938-2.25 1.313l-0.5 3.5q-0.125 0.563-0.625 0.563h-5.375q-0.5 0-0.625-0.563l-0.5-3.5q-1.188-0.5-2.25-1.313l-3.313 1.313q-0.563 0.188-0.813-0.25l-2.688-4.625q-0.313-0.563 0.125-0.875l2.813-2.188q-0.063-0.438-0.063-1.313t0.063-1.313l-2.813-2.188q-0.438-0.313-0.125-0.875l2.688-4.625q0.25-0.438 0.813-0.25l3.313 1.313q1.313-0.938 2.25-1.313l0.5-3.5q0.125-0.563 0.625-0.563h5.375q0.5 0 0.625 0.563l0.5 3.5q1.188 0.5 2.25 1.313l3.313-1.313q0.563-0.188 0.813 0.25l2.688 4.625q0.313 0.563-0.125 0.875l-2.813 2.188q0.063 0.438 0.063 1.313t-0.063 1.313z"></path>
        </symbol>
        <symbol id="tune" viewBox="0 0 32 32">
            <path d="M20 12v-8h2.688v2.688h5.313v2.625h-5.313v2.688h-2.688zM28 17.313h-13.313v-2.625h13.313v2.625zM9.313 12h2.688v8h-2.688v-2.688h-5.313v-2.625h5.313v-2.688zM17.313 28h-2.625v-8h2.625v2.688h10.688v2.625h-10.688v2.688zM4 6.688h13.313v2.625h-13.313v-2.625zM4 22.688h8v2.625h-8v-2.625z"></path>
        </symbol>
        <symbol id="space_dashboard" viewBox="0 0 32 32">
            <path d="M14.688 28h-8q-1.125 0-1.906-0.781t-0.781-1.906v-18.625q0-1.125 0.781-1.906t1.906-0.781h8v24zM17.313 28h8q1.125 0 1.906-0.781t0.781-1.906v-9.313h-10.688v12zM28 13.313v-6.625q0-1.125-0.781-1.906t-1.906-0.781h-8v9.313h10.688z"></path>
        </symbol>
        <symbol id="envelope" viewBox="0 0 32 32">
            <path d="M29 4q1.25 0.063 2.125 0.875v0q0.813 0.875 0.875 2.125-0.063 1.5-1.188 2.375l-13.625 10.25q-1.188 0.75-2.375 0l-13.625-10.25q-1.125-0.875-1.188-2.375 0.063-1.25 0.875-2.125 0.875-0.813 2.125-0.875h26zM13.625 21.188q1.063 0.813 2.375 0.813v0q1.313 0 2.375-0.813l13.625-10.188v13q-0.063 1.688-1.188 2.813t-2.813 1.188h-24q-1.688-0.063-2.813-1.188t-1.188-2.813v-13l13.625 10.188z"></path>
        </symbol>
        <symbol id="comments" viewBox="0 0 28 28">
            <path d="M22 12c0 4.422-4.922 8-11 8-0.953 0-1.875-0.094-2.75-0.25-1.297 0.922-2.766 1.594-4.344 2-0.422 0.109-0.875 0.187-1.344 0.25h-0.047c-0.234 0-0.453-0.187-0.5-0.453v0c-0.063-0.297 0.141-0.484 0.313-0.688 0.609-0.688 1.297-1.297 1.828-2.594-2.531-1.469-4.156-3.734-4.156-6.266 0-4.422 4.922-8 11-8s11 3.578 11 8zM28 16c0 2.547-1.625 4.797-4.156 6.266 0.531 1.297 1.219 1.906 1.828 2.594 0.172 0.203 0.375 0.391 0.313 0.688v0c-0.063 0.281-0.297 0.484-0.547 0.453-0.469-0.063-0.922-0.141-1.344-0.25-1.578-0.406-3.047-1.078-4.344-2-0.875 0.156-1.797 0.25-2.75 0.25-2.828 0-5.422-0.781-7.375-2.063 0.453 0.031 0.922 0.063 1.375 0.063 3.359 0 6.531-0.969 8.953-2.719 2.609-1.906 4.047-4.484 4.047-7.281 0-0.812-0.125-1.609-0.359-2.375 2.641 1.453 4.359 3.766 4.359 6.375z"></path>
        </symbol>
        <symbol id="error" viewBox="0 0 32 32">
            <path d="M31.644 26.063l-13.331-22.75c-1.021-1.75-3.596-1.75-4.624 0l-13.325 22.75c-1.026 1.744 0.252 3.938 2.308 3.938h26.663c2.047 0 3.329-2.188 2.31-3.938zM14.5 10.5c0-0.828 0.672-1.5 1.5-1.5s1.5 0.675 1.5 1.5v8c0 0.828-0.672 1.5-1.444 1.5s-1.556-0.669-1.556-1.5v-8zM16 26c-1.085 0-1.965-0.88-1.965-1.965s0.879-1.965 1.965-1.965 1.965 0.88 1.965 1.965c-0.003 1.084-0.878 1.965-1.965 1.965z"></path>
        </symbol>
        <symbol id="logout" viewBox="0 0 32 32">
            <path d="M22.667 9.333l-1.88 1.88 3.44 3.453h-13.56v2.667h13.56l-3.44 3.44 1.88 1.893 6.667-6.667zM5.333 6.667h10.667v-2.667h-10.667c-1.467 0-2.667 1.2-2.667 2.667v18.667c0 1.467 1.2 2.667 2.667 2.667h10.667v-2.667h-10.667v-18.667z"></path>
        </symbol>
    </defs>
</svg>